<svg height='300px' width='300px'  fill="#000000" xmlns="http://www.w3.org/2000/svg" xmlns:xlink="http://www.w3.org/1999/xlink" viewBox="0 0 100 100" version="1.1" x="0px" y="0px"><title>magn_gls-12 copy 2</title><desc>Created with Sketch.</desc><g stroke="none" stroke-width="1" fill="none" fill-rule="evenodd"><path d="M26.1535288,14.9394403 L76.3688151,14.9394403 L76.3688151,85.3360729 L72.1842079,85.3360729 L72.1872026,19.1210528 L26.1535288,19.3256913 L26.1535288,14.9394403 Z M86.3092537,5 L86.3092537,75.3966326 L82.1236482,75.3966326 L82.1276412,9.18161248 L36.0929691,9.38625096 L36.0929691,5 L86.3092537,5 Z M18.1676372,29.0475161 L62.2607394,29.0475161 L62.2607394,86.3742388 L59.5305627,89.1054138 L54.7030912,84.2779423 L49.7827837,89.1173926 L44.9842611,84.31887 L40.1038831,89.1173926 L35.3063588,84.31887 L30.4259808,89.1173926 L25.5745516,84.2659635 L20.7351013,89.1054138 L18.1676372,86.5379496 L18.1676372,29.0475161 Z M14,88.2639004 L20.7351013,95 L25.5745516,90.1605497 L30.4020231,94.9880212 L35.2814029,90.1894986 L40.0799255,94.9880212 L44.9593052,90.1894986 L49.7578278,94.9880212 L54.6791335,90.1485709 L59.5305627,95 L66.4293748,88.1011879 L66.4293748,24.8788806 L14,24.8788806 L14,88.2639004 Z M43.5168536,61.5331248 C43.0017636,60.2643663 41.4265464,59.896017 40.2007121,59.532659 C38.8171564,59.123382 37.3786976,58.7580275 36.1887998,57.9374771 C32.6440622,55.4917978 32.892623,49.5772469 36.9973713,47.7864107 C37.4166306,47.6037334 37.8598476,47.4809503 38.309054,47.3861179 L37.9347153,44.4902339 L42.3728746,44.4902339 L41.9925465,47.4350314 C42.7312415,47.6057299 43.4429841,47.8682661 44.0748677,48.2675606 C45.4085116,49.1110704 46.1312348,50.4596879 46.448674,51.9031378 L42.9049346,52.604898 C42.7352344,52.1017868 42.4647123,51.6326157 42.0424583,51.2942136 C41.5503278,50.8999102 40.8954846,50.7182311 40.2516221,50.6972682 C39.0976608,50.6603334 37.5923202,50.9598043 37.152098,52.1217516 C36.9085283,52.7646158 37.072239,53.5102985 37.5643696,54.0074202 C38.0055901,54.4516354 39.0747014,54.9148172 40.774698,55.3969654 C42.4746947,55.8791136 43.7324726,56.3782318 44.5470336,56.8923236 C45.3605963,57.4084118 45.9984694,58.1121685 46.4586564,59.0055901 C47.8252421,61.6589026 47.2662297,65.6019366 44.7566632,67.4896017 C43.9720494,68.0795594 43.0287159,68.4509034 42.0444548,68.6465577 L42.3728746,71.1880677 L37.9347153,71.1880677 L38.2731175,68.5696935 C37.333777,68.335108 36.451336,67.9308222 35.7156357,67.3298839 C34.3081223,66.1799155 33.5784115,64.4629488 33.2450005,62.7120421 L36.6220344,61.9493894 C36.9135194,63.7621868 38.2601404,65.1936579 40.2556151,65.1936579 C41.3806276,65.1936579 42.2291285,64.9081622 42.8001198,64.3361728 C43.5278342,63.6054637 43.911157,62.5014142 43.5168536,61.5331248 L43.5168536,61.5331248 Z M40.2146874,76.0943999 C50.2968755,76.0943999 58.4694373,67.9208398 58.4694373,57.83965 C58.4694373,47.7574618 50.2968755,39.5839018 40.2146874,39.5839018 C30.1324993,39.5839018 21.9599374,47.7574618 21.9599374,57.83965 C21.9599374,67.9208398 30.1324993,76.0943999 40.2146874,76.0943999 L40.2146874,76.0943999 Z" fill="#000000"></path></g></svg>